<?xml version="1.0" encoding="UTF-8" standalone="no"?>
<!DOCTYPE svg PUBLIC "-//W3C//DTD SVG 1.1//EN"
 "http://www.w3.org/Graphics/SVG/1.1/DTD/svg11.dtd">
<!-- Generated by graphviz version 2.40.1 (20161225.0304)
 -->
<!-- Title: G Pages: 1 -->
<svg width="580pt" height="260pt"
 viewBox="0.00 0.00 579.84 260.00" xmlns="http://www.w3.org/2000/svg" xmlns:xlink="http://www.w3.org/1999/xlink">
<g id="graph0" class="graph" transform="scale(1 1) rotate(0) translate(4 256)">
<title>G</title>
<polygon fill="#ffffff" stroke="transparent" points="-4,4 -4,-256 575.8405,-256 575.8405,4 -4,4"/>
<!-- LIST_FUNCTION_NODE3 -->
<g id="node1" class="node">
<title>LIST_FUNCTION_NODE3</title>
<ellipse fill="none" stroke="#000000" cx="121.5255" cy="-90" rx="121.551" ry="18"/>
<text text-anchor="middle" x="121.5255" y="-85.8" font-family="Times,serif" font-size="14.00" fill="#000000">LIST_FUNCTION_NODE3</text>
</g>
<!-- FUNCTION_NODE3 -->
<g id="node2" class="node">
<title>FUNCTION_NODE3</title>
<ellipse fill="none" stroke="#000000" cx="121.5255" cy="-18" rx="96.1305" ry="18"/>
<text text-anchor="middle" x="121.5255" y="-13.8" font-family="Times,serif" font-size="14.00" fill="#000000">FUNCTION_NODE3</text>
</g>
<!-- LIST_FUNCTION_NODE3&#45;&gt;FUNCTION_NODE3 -->
<g id="edge1" class="edge">
<title>LIST_FUNCTION_NODE3&#45;&gt;FUNCTION_NODE3</title>
<path fill="none" stroke="#000000" d="M121.5255,-71.8314C121.5255,-64.131 121.5255,-54.9743 121.5255,-46.4166"/>
<polygon fill="#000000" stroke="#000000" points="125.0256,-46.4132 121.5255,-36.4133 118.0256,-46.4133 125.0256,-46.4132"/>
</g>
<!-- LIST_FUNCTION_NODE2 -->
<g id="node3" class="node">
<title>LIST_FUNCTION_NODE2</title>
<ellipse fill="none" stroke="#000000" cx="239.5255" cy="-162" rx="121.551" ry="18"/>
<text text-anchor="middle" x="239.5255" y="-157.8" font-family="Times,serif" font-size="14.00" fill="#000000">LIST_FUNCTION_NODE2</text>
</g>
<!-- LIST_FUNCTION_NODE2&#45;&gt;LIST_FUNCTION_NODE3 -->
<g id="edge2" class="edge">
<title>LIST_FUNCTION_NODE2&#45;&gt;LIST_FUNCTION_NODE3</title>
<path fill="none" stroke="#000000" d="M210.6594,-144.3868C195.2309,-134.9728 176.0444,-123.2658 159.4287,-113.1274"/>
<polygon fill="#000000" stroke="#000000" points="160.8619,-109.9018 150.5025,-107.6809 157.2158,-115.8773 160.8619,-109.9018"/>
</g>
<!-- FUNCTION_NODE2 -->
<g id="node4" class="node">
<title>FUNCTION_NODE2</title>
<ellipse fill="none" stroke="#000000" cx="357.5255" cy="-90" rx="96.1305" ry="18"/>
<text text-anchor="middle" x="357.5255" y="-85.8" font-family="Times,serif" font-size="14.00" fill="#000000">FUNCTION_NODE2</text>
</g>
<!-- LIST_FUNCTION_NODE2&#45;&gt;FUNCTION_NODE2 -->
<g id="edge3" class="edge">
<title>LIST_FUNCTION_NODE2&#45;&gt;FUNCTION_NODE2</title>
<path fill="none" stroke="#000000" d="M268.3915,-144.3868C283.9352,-134.9026 303.2931,-123.0909 319.9938,-112.9007"/>
<polygon fill="#000000" stroke="#000000" points="322.2441,-115.6278 328.9574,-107.4313 318.598,-109.6523 322.2441,-115.6278"/>
</g>
<!-- LIST_FUNCTION_NODE1 -->
<g id="node5" class="node">
<title>LIST_FUNCTION_NODE1</title>
<ellipse fill="none" stroke="#000000" cx="357.5255" cy="-234" rx="121.551" ry="18"/>
<text text-anchor="middle" x="357.5255" y="-229.8" font-family="Times,serif" font-size="14.00" fill="#000000">LIST_FUNCTION_NODE1</text>
</g>
<!-- LIST_FUNCTION_NODE1&#45;&gt;LIST_FUNCTION_NODE2 -->
<g id="edge5" class="edge">
<title>LIST_FUNCTION_NODE1&#45;&gt;LIST_FUNCTION_NODE2</title>
<path fill="none" stroke="#000000" d="M328.6594,-216.3868C313.2309,-206.9728 294.0444,-195.2658 277.4287,-185.1274"/>
<polygon fill="#000000" stroke="#000000" points="278.8619,-181.9018 268.5025,-179.6809 275.2158,-187.8773 278.8619,-181.9018"/>
</g>
<!-- FUNCTION_NODE1 -->
<g id="node6" class="node">
<title>FUNCTION_NODE1</title>
<ellipse fill="none" stroke="#000000" cx="475.5255" cy="-162" rx="96.1305" ry="18"/>
<text text-anchor="middle" x="475.5255" y="-157.8" font-family="Times,serif" font-size="14.00" fill="#000000">FUNCTION_NODE1</text>
</g>
<!-- LIST_FUNCTION_NODE1&#45;&gt;FUNCTION_NODE1 -->
<g id="edge4" class="edge">
<title>LIST_FUNCTION_NODE1&#45;&gt;FUNCTION_NODE1</title>
<path fill="none" stroke="#000000" d="M386.3915,-216.3868C401.9352,-206.9026 421.2931,-195.0909 437.9938,-184.9007"/>
<polygon fill="#000000" stroke="#000000" points="440.2441,-187.6278 446.9574,-179.4313 436.598,-181.6523 440.2441,-187.6278"/>
</g>
</g>
</svg>
